<?xml version="1.0" standalone="no"?>
<!DOCTYPE svg PUBLIC "-//W3C//DTD SVG 20010904//EN"
 "http://www.w3.org/TR/2001/REC-SVG-20010904/DTD/svg10.dtd">
<svg version="1.0" xmlns="http://www.w3.org/2000/svg"
 width="500.000000pt" height="500.000000pt" viewBox="0 0 500.000000 500.000000"
 preserveAspectRatio="xMidYMid meet">

<g transform="translate(0.000000,500.000000) scale(0.100000,-0.100000)"
fill="#000000" stroke="none">
<path d="M0 2500 l0 -2500 2500 0 2500 0 0 2500 0 2500 -2500 0 -2500 0 0
-2500z m2725 741 l285 -364 0 -186 0 -185 -73 99 c-213 291 -197 264 -197 338
l0 67 -49 0 -50 0 -101 141 c-91 124 -104 138 -114 122 -7 -10 -86 -138 -175
-285 -89 -148 -164 -268 -166 -268 -6 0 35 99 79 195 l45 95 -70 0 c-56 0 -70
3 -67 14 5 25 353 586 361 583 4 -1 136 -166 292 -366z m583 -218 l-3 -548
-27 -55 c-38 -76 -81 -103 -168 -108 -76 -5 -135 10 -150 38 -9 16 -6 18 29
13 48 -7 95 17 118 60 17 29 18 79 21 590 l3 557 90 0 90 0 -3 -547z m-1938
202 l0 -126 -60 49 c-150 121 -362 182 -635 182 l-85 0 0 -375 0 -375 114 0
c212 0 347 31 412 96 l34 35 0 -139 0 -139 -38 37 c-66 62 -146 82 -349 88
l-173 5 0 -397 0 -396 -115 0 -115 0 0 790 0 790 505 0 505 0 0 -125z m2850
-710 l0 -675 -100 0 -100 0 0 675 0 675 100 0 100 0 0 -675z m-437 297 l137
-143 0 -107 -1 -107 -148 153 c-82 83 -153 152 -159 152 -6 0 -51 -44 -101
-97 l-91 -97 0 105 0 105 108 92 c59 50 109 91 112 89 3 -1 67 -66 143 -145z
m-1693 123 c0 -3 -9 -23 -19 -44 -81 -158 -191 -595 -194 -766 -2 -158 76
-200 362 -193 172 4 223 18 248 68 10 19 13 138 13 483 l0 457 81 0 81 0 -4
-307 c-4 -283 -6 -314 -27 -383 -51 -171 -149 -324 -253 -393 -157 -104 -357
-102 -453 5 -72 79 -70 59 -73 596 l-3 482 120 0 c67 0 121 -2 121 -5z m-310
-430 c0 -244 -2 -291 -16 -317 l-16 -31 -52 109 c-29 60 -58 124 -65 142 -7
17 -17 32 -20 32 -4 0 -144 -153 -310 -340 -167 -187 -307 -340 -311 -340 -5
0 136 232 313 515 l321 515 78 0 78 0 0 -285z m1055 -156 c36 -108 121 -156
271 -152 l81 2 52 -200 c29 -110 51 -206 49 -214 -2 -7 -88 79 -192 191 -135
146 -194 204 -210 203 -11 0 -70 -29 -131 -63 -60 -35 -111 -62 -113 -61 -1 1
11 37 28 80 18 42 39 114 49 159 14 66 22 83 42 93 44 23 56 16 74 -38z m1752
-380 c136 -144 250 -265 251 -270 2 -5 -35 -9 -81 -9 l-85 0 -171 188 -171
187 0 83 c0 45 2 82 4 82 2 0 116 -117 253 -261z"/>
</g>
</svg>
