<svg version="1.1" id="Layer_1" xmlns="http://www.w3.org/2000/svg" xmlns:xlink="http://www.w3.org/1999/xlink" x="0px" y="0px"
	 width="100%" viewBox="0 0 500 500" enable-background="new 0 0 500 500" xml:space="preserve">
<path fill="#000000" opacity="1.000000" stroke="none" 
	d="
M243.000000,501.000000 
	C162.000015,501.000000 81.500038,501.000000 1.000043,501.000000 
	C1.000029,334.333405 1.000029,167.666779 1.000014,1.000133 
	C167.666565,1.000088 334.333130,1.000088 500.999756,1.000044 
	C500.999847,167.666519 500.999847,334.333038 500.999939,500.999786 
	C415.166656,501.000000 329.333344,501.000000 243.000000,501.000000 
M332.993195,182.810974 
	C332.993408,176.687729 333.089630,170.562378 332.954254,164.442123 
	C332.884216,161.276581 332.403320,158.120117 332.007812,154.074738 
	C332.007812,150.864029 332.007812,147.653336 332.007812,143.398193 
	C330.715668,143.088409 328.464783,142.207825 326.172089,142.080627 
	C322.897430,141.898926 319.509247,141.889526 316.339386,142.582993 
	C315.003296,142.875305 313.342499,145.049545 313.150909,146.538376 
	C312.687195,150.142090 312.999969,153.845734 312.999969,157.509109 
	C312.999939,188.647751 313.015533,219.786423 312.990234,250.925034 
	C312.982941,259.882874 307.685211,264.714508 298.865936,264.025665 
	C297.633270,263.929352 296.374512,264.167450 295.019470,264.257996 
	C299.281372,274.582581 323.314941,273.023743 327.852356,262.831726 
	C330.350708,257.219910 332.538116,250.979355 332.767853,244.942429 
	C333.387817,228.653549 332.882935,212.321854 332.988617,195.116928 
	C332.915771,191.891418 332.842926,188.665924 332.741608,184.929260 
	C332.763000,184.438828 332.784393,183.948410 332.993195,182.810974 
M36.006954,171.914474 
	C36.007877,201.836838 35.987774,231.759232 36.017151,261.681580 
	C36.036572,281.458588 36.127048,301.235535 36.035927,321.844391 
	C37.129810,322.896118 38.187225,324.809906 39.323563,324.857941 
	C46.091736,325.144257 52.878147,324.999542 60.036343,324.999542 
	C60.036343,298.490204 60.036343,272.423553 60.036343,246.001419 
	C68.872192,246.001419 77.366219,245.500656 85.767441,246.168106 
	C91.914337,246.656448 98.244217,247.932724 103.924561,250.250031 
	C108.693779,252.195648 112.642578,256.152313 116.535004,258.920258 
	C116.535004,248.961349 116.535004,238.503967 116.535004,226.980392 
	C111.469704,234.463791 105.422340,239.038223 97.574310,239.880829 
	C86.809135,241.036667 75.940269,241.192017 65.139557,242.068390 
	C60.674210,242.430725 59.892242,240.537888 59.925514,236.585541 
	C60.089573,217.095779 60.000118,197.603912 60.000114,178.112778 
	C60.000114,175.166687 60.000114,172.220581 60.000114,168.983261 
	C74.708122,169.079895 88.755753,169.209412 102.825058,172.754623 
	C116.518974,176.205261 127.754807,183.429123 139.000092,193.265411 
	C139.000092,184.498993 138.742096,177.498550 139.093460,170.528809 
	C139.316849,166.097534 137.869217,164.880783 133.474579,164.906403 
	C102.822899,165.085068 72.168983,165.104797 41.517715,164.893600 
	C36.606995,164.859756 35.231552,166.562759 36.006954,171.914474 
M256.447205,296.038147 
	C257.957184,293.386597 259.957123,290.895111 260.885315,288.053497 
	C263.677765,279.504425 266.980988,271.147400 267.120026,261.824158 
	C267.373596,244.817596 268.341675,227.821838 268.993530,210.820877 
	C269.120483,207.510498 267.618011,206.368973 264.257996,206.837433 
	C261.485321,207.223999 258.555145,207.283173 255.801468,206.833694 
	C250.388138,205.950134 250.002853,206.086777 250.002243,211.592728 
	C249.999222,238.921448 250.000702,266.250153 250.009293,293.578888 
	C250.011703,301.284515 246.353363,306.346008 238.569580,306.820892 
	C227.614517,307.489349 216.544189,307.559601 205.614334,306.711121 
	C201.278351,306.374542 196.598511,303.600586 193.103836,300.697937 
	C185.419266,294.315186 188.240250,285.252747 189.463623,277.423950 
	C191.063217,267.187744 194.115265,257.137787 197.070755,247.164215 
	C201.055054,233.718765 205.542511,220.422409 210.011902,206.443207 
	C208.047943,206.532272 205.281036,206.718658 202.511658,206.768799 
	C198.535339,206.840805 194.362717,207.582413 190.628204,206.637650 
	C185.753357,205.404419 184.932999,207.160370 184.962250,211.311340 
	C185.060898,225.308304 184.871216,239.307922 185.039124,253.303558 
	C185.182098,265.220612 185.800598,277.132019 185.939270,289.049072 
	C186.002335,294.467346 184.830551,299.610260 186.731384,305.288452 
	C189.871964,314.670044 195.840958,320.501801 204.847702,322.868561 
	C218.574097,326.475494 231.243607,323.090546 242.094574,314.209076 
	C247.887222,309.467804 253.063919,303.858978 256.447205,296.038147 
M272.001862,173.502228 
	C263.933472,163.133606 255.890228,152.745224 247.763123,142.422852 
	C246.809372,141.211487 245.167267,139.374359 244.247574,139.585342 
	C242.959656,139.880814 242.037994,141.816772 240.984573,143.071838 
	C240.462326,143.694046 239.940933,144.328705 239.511948,145.015686 
	C230.139679,160.024368 220.751724,175.023422 211.443466,190.071762 
	C209.614136,193.029175 208.102371,196.183014 206.083435,199.912567 
	C211.628098,199.912567 216.067871,199.912567 220.591614,199.912567 
	C216.102417,210.236084 211.721405,220.310822 207.340393,230.385559 
	C208.013992,230.720566 208.687592,231.055573 209.361176,231.390579 
	C221.098602,212.126541 232.836029,192.862503 244.811829,173.207199 
	C249.723343,179.957184 254.289505,185.806076 258.374939,191.973389 
	C262.075317,197.559448 266.099213,201.968872 273.999939,199.717865 
	C273.999939,202.658752 273.733185,204.990356 274.064545,207.233597 
	C274.523621,210.341354 274.629547,213.930298 276.285980,216.358780 
	C283.953522,227.600037 292.071686,238.535751 300.145966,249.494339 
	C300.805176,250.389038 302.348297,250.632477 304.132690,251.492935 
	C303.683624,247.267990 303.101074,244.056000 303.046875,240.835144 
	C302.906860,232.511444 303.068817,224.182678 302.931061,215.858902 
	C302.908600,214.502106 302.253082,212.948517 301.416931,211.844193 
	C291.838440,199.193848 282.168304,186.612930 272.001862,173.502228 
M423.977570,253.500000 
	C423.977570,229.531464 423.977570,205.562912 423.977570,180.999023 
	C418.930481,180.999023 414.008606,181.205154 409.111206,180.946777 
	C403.009949,180.624893 403.002228,180.464645 403.001740,186.679047 
	C402.998383,228.972137 402.997650,271.265228 403.009918,313.558319 
	C403.010345,314.988251 403.157837,316.418121 403.228302,317.694275 
	C410.356354,317.694275 417.093048,317.694275 423.977570,317.694275 
	C423.977570,296.425964 423.977570,275.462982 423.977570,253.500000 
M105.486465,313.015045 
	C103.275146,316.558502 100.947853,320.038239 98.939468,323.693207 
	C98.475914,324.536804 99.104301,325.980438 99.325287,328.029633 
	C120.709335,304.009186 141.111130,281.092102 161.747437,257.911591 
	C166.080185,267.057373 170.350891,276.072266 174.690842,285.233276 
	C178.906601,284.180481 178.956100,281.097931 179.011612,277.932892 
	C179.319473,260.381531 179.687668,242.831177 179.945572,225.279144 
	C179.963684,224.046875 179.174286,221.706390 178.903656,221.727402 
	C172.953888,222.189117 166.751083,222.092606 161.209732,223.940887 
	C158.555817,224.826080 157.037689,229.414749 155.219345,232.454269 
	C147.980103,244.555115 140.991730,256.808990 133.596466,268.812775 
	C124.566574,283.469879 115.221321,297.932709 105.486465,313.015045 
M264.504089,293.999146 
	C263.722961,297.522949 265.828674,296.044220 267.090637,295.373260 
	C272.997650,292.232666 278.873718,289.031525 284.709625,285.760681 
	C287.679871,284.095978 290.406921,282.564636 293.392517,285.892090 
	C303.030090,296.633118 312.726776,307.322388 322.511688,317.929138 
	C324.763947,320.370544 327.459229,322.403229 329.950623,324.624023 
	C330.351562,324.332825 330.752502,324.041626 331.153473,323.750458 
	C330.850464,322.048035 330.645813,320.321136 330.228516,318.647186 
	C327.511902,307.749359 324.566681,296.904449 322.077393,285.955627 
	C320.806000,280.363464 319.630920,279.040344 314.281342,280.030273 
	C298.351501,282.977875 287.743805,276.695770 283.946655,262.793427 
	C283.660950,261.747467 282.196869,260.028870 281.812286,260.161743 
	C278.743805,261.222046 274.194458,260.167450 273.843689,265.523621 
	C273.711639,267.539795 272.786316,269.515808 272.144501,271.484680 
	C269.768036,278.775482 267.359009,286.055634 264.504089,293.999146 
M358.546204,228.971039 
	C360.334930,227.744766 361.497437,224.029236 364.450256,227.037430 
	C371.492218,234.211441 378.365723,241.550552 385.336853,248.794464 
	C387.846680,251.402451 390.441376,253.928787 392.997314,256.492371 
	C393.999847,249.285294 394.089600,242.963409 393.935181,236.647522 
	C393.897736,235.116531 393.523712,233.095551 392.510223,232.164062 
	C382.831696,223.268570 372.982300,214.558975 362.879578,205.525665 
	C359.592255,208.352737 354.555267,213.035461 349.138428,217.227341 
	C345.098663,220.353546 341.699463,223.426483 341.951447,229.117264 
	C342.180695,234.295197 341.999969,239.491272 341.999969,244.679352 
	C342.539276,244.806656 343.078583,244.933945 343.617889,245.061249 
	C348.418396,239.864120 353.218903,234.666992 358.546204,228.971039 
M455.520782,319.014069 
	C459.224335,323.044800 462.829132,327.173767 466.686493,331.051483 
	C467.986267,332.358185 469.937103,333.851196 471.573120,333.831390 
	C476.282928,333.774506 480.983948,332.989014 487.294495,332.319275 
	C469.671661,312.539398 451.289917,294.571045 432.999939,274.621155 
	C432.999939,281.649872 432.925293,286.974335 433.057617,292.293640 
	C433.087067,293.478241 433.542694,294.914978 434.314301,295.777313 
	C441.143433,303.409668 448.088104,310.938629 455.520782,319.014069 
z"/>
<path fill="#FFFFFF" opacity="1.000000" stroke="none" 
	d="
M36.171204,170.988419 
	C35.231552,166.562759 36.606995,164.859756 41.517715,164.893600 
	C72.168983,165.104797 102.822899,165.085068 133.474579,164.906403 
	C137.869217,164.880783 139.316849,166.097534 139.093460,170.528809 
	C138.742096,177.498550 139.000092,184.498993 139.000092,193.265411 
	C127.754807,183.429123 116.518974,176.205261 102.825058,172.754623 
	C88.755753,169.209412 74.708122,169.079895 60.000114,168.983261 
	C60.000114,172.220581 60.000114,175.166687 60.000114,178.112778 
	C60.000118,197.603912 60.089573,217.095779 59.925514,236.585541 
	C59.892242,240.537888 60.674210,242.430725 65.139557,242.068390 
	C75.940269,241.192017 86.809135,241.036667 97.574310,239.880829 
	C105.422340,239.038223 111.469704,234.463791 116.535004,226.980392 
	C116.535004,238.503967 116.535004,248.961349 116.535004,258.920258 
	C112.642578,256.152313 108.693779,252.195648 103.924561,250.250031 
	C98.244217,247.932724 91.914337,246.656448 85.767441,246.168106 
	C77.366219,245.500656 68.872192,246.001419 60.036343,246.001419 
	C60.036343,272.423553 60.036343,298.490204 60.036343,324.999542 
	C52.878147,324.999542 46.091736,325.144257 39.323563,324.857941 
	C38.187225,324.809906 37.129810,322.896118 36.492989,321.318542 
	C37.298893,319.593903 37.951492,318.395447 37.952797,317.196259 
	C38.004353,269.798340 38.011703,222.400314 37.920269,175.002502 
	C37.917686,173.663345 36.779743,172.326401 36.171204,170.988419 
z"/>
<path fill="#FFFFFF" opacity="1.000000" stroke="none" 
	d="
M256.240295,296.363251 
	C253.063919,303.858978 247.887222,309.467804 242.094574,314.209076 
	C231.243607,323.090546 218.574097,326.475494 204.847702,322.868561 
	C195.840958,320.501801 189.871964,314.670044 186.731384,305.288452 
	C184.830551,299.610260 186.002335,294.467346 185.939270,289.049072 
	C185.800598,277.132019 185.182098,265.220612 185.039124,253.303558 
	C184.871216,239.307922 185.060898,225.308304 184.962250,211.311340 
	C184.932999,207.160370 185.753357,205.404419 190.628204,206.637650 
	C194.362717,207.582413 198.535339,206.840805 202.511658,206.768799 
	C205.281036,206.718658 208.047943,206.532272 210.011902,206.443207 
	C205.542511,220.422409 201.055054,233.718765 197.070755,247.164215 
	C194.115265,257.137787 191.063217,267.187744 189.463623,277.423950 
	C188.240250,285.252747 185.419266,294.315186 193.103836,300.697937 
	C196.598511,303.600586 201.278351,306.374542 205.614334,306.711121 
	C216.544189,307.559601 227.614517,307.489349 238.569580,306.820892 
	C246.353363,306.346008 250.011703,301.284515 250.009293,293.578888 
	C250.000702,266.250153 249.999222,238.921448 250.002243,211.592728 
	C250.002853,206.086777 250.388138,205.950134 255.801468,206.833694 
	C258.555145,207.283173 261.485321,207.223999 264.257996,206.837433 
	C267.618011,206.368973 269.120483,207.510498 268.993530,210.820877 
	C268.341675,227.821838 267.373596,244.817596 267.120026,261.824158 
	C266.980988,271.147400 263.677765,279.504425 260.885315,288.053497 
	C259.957123,290.895111 257.957184,293.386597 256.240295,296.363251 
z"/>
<path fill="#FFFFFF" opacity="1.000000" stroke="none" 
	d="
M272.262207,173.757874 
	C282.168304,186.612930 291.838440,199.193848 301.416931,211.844193 
	C302.253082,212.948517 302.908600,214.502106 302.931061,215.858902 
	C303.068817,224.182678 302.906860,232.511444 303.046875,240.835144 
	C303.101074,244.056000 303.683624,247.267990 304.132690,251.492935 
	C302.348297,250.632477 300.805176,250.389038 300.145966,249.494339 
	C292.071686,238.535751 283.953522,227.600037 276.285980,216.358780 
	C274.629547,213.930298 274.523621,210.341354 274.064545,207.233597 
	C273.733185,204.990356 273.999939,202.658752 273.999939,199.717865 
	C266.099213,201.968872 262.075317,197.559448 258.374939,191.973389 
	C254.289505,185.806076 249.723343,179.957184 244.811829,173.207199 
	C232.836029,192.862503 221.098602,212.126541 209.361176,231.390579 
	C208.687592,231.055573 208.013992,230.720566 207.340393,230.385559 
	C211.721405,220.310822 216.102417,210.236084 220.591614,199.912567 
	C216.067871,199.912567 211.628098,199.912567 206.083435,199.912567 
	C208.102371,196.183014 209.614136,193.029175 211.443466,190.071762 
	C220.751724,175.023422 230.139679,160.024368 239.511948,145.015686 
	C239.940933,144.328705 240.462326,143.694046 240.984573,143.071838 
	C242.037994,141.816772 242.959656,139.880814 244.247574,139.585342 
	C245.167267,139.374359 246.809372,141.211487 247.763123,142.422852 
	C255.890228,152.745224 263.933472,163.133606 272.262207,173.757874 
z"/>
<path fill="#FFFFFF" opacity="1.000000" stroke="none" 
	d="
M423.977570,254.000000 
	C423.977570,275.462982 423.977570,296.425964 423.977570,317.694275 
	C417.093048,317.694275 410.356354,317.694275 403.228302,317.694275 
	C403.157837,316.418121 403.010345,314.988251 403.009918,313.558319 
	C402.997650,271.265228 402.998383,228.972137 403.001740,186.679047 
	C403.002228,180.464645 403.009949,180.624893 409.111206,180.946777 
	C414.008606,181.205154 418.930481,180.999023 423.977570,180.999023 
	C423.977570,205.562912 423.977570,229.531464 423.977570,254.000000 
z"/>
<path fill="#FFFFFF" opacity="1.000000" stroke="none" 
	d="
M332.824432,196.007156 
	C332.882935,212.321854 333.387817,228.653549 332.767853,244.942429 
	C332.538116,250.979355 330.350708,257.219910 327.852356,262.831726 
	C323.314941,273.023743 299.281372,274.582581 295.019470,264.257996 
	C296.374512,264.167450 297.633270,263.929352 298.865936,264.025665 
	C307.685211,264.714508 312.982941,259.882874 312.990234,250.925034 
	C313.015533,219.786423 312.999939,188.647751 312.999969,157.509109 
	C312.999969,153.845734 312.687195,150.142090 313.150909,146.538376 
	C313.342499,145.049545 315.003296,142.875305 316.339386,142.582993 
	C319.509247,141.889526 322.897430,141.898926 326.172089,142.080627 
	C328.464783,142.207825 330.715668,143.088409 332.007812,143.398193 
	C332.007812,147.653336 332.007812,150.864029 331.740295,154.797806 
	C331.331024,163.946716 331.135925,172.372513 331.126556,180.798508 
	C331.125580,181.684372 332.219727,182.571457 332.805786,183.457977 
	C332.784393,183.948410 332.763000,184.438828 332.233215,185.412445 
	C331.275848,189.354828 329.173950,192.993774 332.824432,196.007156 
z"/>
<path fill="#FFFFFF" opacity="1.000000" stroke="none" 
	d="
M105.749451,312.747314 
	C115.221321,297.932709 124.566574,283.469879 133.596466,268.812775 
	C140.991730,256.808990 147.980103,244.555115 155.219345,232.454269 
	C157.037689,229.414749 158.555817,224.826080 161.209732,223.940887 
	C166.751083,222.092606 172.953888,222.189117 178.903656,221.727402 
	C179.174286,221.706390 179.963684,224.046875 179.945572,225.279144 
	C179.687668,242.831177 179.319473,260.381531 179.011612,277.932892 
	C178.956100,281.097931 178.906601,284.180481 174.690842,285.233276 
	C170.350891,276.072266 166.080185,267.057373 161.747437,257.911591 
	C141.111130,281.092102 120.709335,304.009186 99.325287,328.029633 
	C99.104301,325.980438 98.475914,324.536804 98.939468,323.693207 
	C100.947853,320.038239 103.275146,316.558502 105.749451,312.747314 
z"/>
<path fill="#FFFFFF" opacity="1.000000" stroke="none" 
	d="
M264.733154,293.669464 
	C267.359009,286.055634 269.768036,278.775482 272.144501,271.484680 
	C272.786316,269.515808 273.711639,267.539795 273.843689,265.523621 
	C274.194458,260.167450 278.743805,261.222046 281.812286,260.161743 
	C282.196869,260.028870 283.660950,261.747467 283.946655,262.793427 
	C287.743805,276.695770 298.351501,282.977875 314.281342,280.030273 
	C319.630920,279.040344 320.806000,280.363464 322.077393,285.955627 
	C324.566681,296.904449 327.511902,307.749359 330.228516,318.647186 
	C330.645813,320.321136 330.850464,322.048035 331.153473,323.750458 
	C330.752502,324.041626 330.351562,324.332825 329.950623,324.624023 
	C327.459229,322.403229 324.763947,320.370544 322.511688,317.929138 
	C312.726776,307.322388 303.030090,296.633118 293.392517,285.892090 
	C290.406921,282.564636 287.679871,284.095978 284.709625,285.760681 
	C278.873718,289.031525 272.997650,292.232666 267.090637,295.373260 
	C265.828674,296.044220 263.722961,297.522949 264.733154,293.669464 
z"/>
<path fill="#FFFFFF" opacity="1.000000" stroke="none" 
	d="
M358.282806,229.220459 
	C353.218903,234.666992 348.418396,239.864120 343.617889,245.061249 
	C343.078583,244.933945 342.539276,244.806656 341.999969,244.679352 
	C341.999969,239.491272 342.180695,234.295197 341.951447,229.117264 
	C341.699463,223.426483 345.098663,220.353546 349.138428,217.227341 
	C354.555267,213.035461 359.592255,208.352737 362.879578,205.525665 
	C372.982300,214.558975 382.831696,223.268570 392.510223,232.164062 
	C393.523712,233.095551 393.897736,235.116531 393.935181,236.647522 
	C394.089600,242.963409 393.999847,249.285294 392.997314,256.492371 
	C390.441376,253.928787 387.846680,251.402451 385.336853,248.794464 
	C378.365723,241.550552 371.492218,234.211441 364.450256,227.037430 
	C361.497437,224.029236 360.334930,227.744766 358.282806,229.220459 
z"/>
<path fill="#FFFFFF" opacity="1.000000" stroke="none" 
	d="
M455.259705,318.756104 
	C448.088104,310.938629 441.143433,303.409668 434.314301,295.777313 
	C433.542694,294.914978 433.087067,293.478241 433.057617,292.293640 
	C432.925293,286.974335 432.999939,281.649872 432.999939,274.621155 
	C451.289917,294.571045 469.671661,312.539398 487.294495,332.319275 
	C480.983948,332.989014 476.282928,333.774506 471.573120,333.831390 
	C469.937103,333.851196 467.986267,332.358185 466.686493,331.051483 
	C462.829132,327.173767 459.224335,323.044800 455.259705,318.756104 
z"/>
<path fill="#F1F1F1" opacity="1.000000" stroke="none" 
	d="
M36.089081,171.451447 
	C36.779743,172.326401 37.917686,173.663345 37.920269,175.002502 
	C38.011703,222.400314 38.004353,269.798340 37.952797,317.196259 
	C37.951492,318.395447 37.298893,319.593903 36.567879,320.902588 
	C36.127048,301.235535 36.036572,281.458588 36.017151,261.681580 
	C35.987774,231.759232 36.007877,201.836838 36.089081,171.451447 
z"/>
<path fill="#EEEEEE" opacity="1.000000" stroke="none" 
	d="
M332.899475,183.134476 
	C332.219727,182.571457 331.125580,181.684372 331.126556,180.798508 
	C331.135925,172.372513 331.331024,163.946716 331.790405,155.240204 
	C332.403320,158.120117 332.884216,161.276581 332.954254,164.442123 
	C333.089630,170.562378 332.993408,176.687729 332.899475,183.134476 
z"/>
<path fill="#F7F7F7" opacity="1.000000" stroke="none" 
	d="
M332.906525,195.562042 
	C329.173950,192.993774 331.275848,189.354828 332.247437,185.668030 
	C332.842926,188.665924 332.915771,191.891418 332.906525,195.562042 
z"/>
</svg>